<svg xmlns="http://www.w3.org/2000/svg" width="512" height="512" viewBox="0 0 512 512">
  <rect width="512" height="512" rx="112" fill="#E85002"/>
  <g fill="none" stroke="#ffffff" stroke-width="28" stroke-linecap="round" stroke-linejoin="round">
    <path d="M168 312c0-66 53-116 120-116 30 0 57 10 78 27l34-12-8 50c12 18 19 39 19 63 0 8-1 16-3 24h-40l-14 30h-40l-10-22a160 160 0 0 1-44 0l-10 22h-40l-14-32c-22-16-37-40-41-68h-20v-40h20z"/>
    <circle cx="300" cy="248" r="6" fill="#ffffff"/>
  </g>
  <text x="256" y="300" font-family="Inter, Arial, sans-serif" font-size="150" font-weight="800" fill="#ffffff" text-anchor="middle" opacity="0.0">R$</text>
</svg>
